<?xml version="1.0" encoding="UTF-8"?>
<svg xmlns="http://www.w3.org/2000/svg"
     xmlns:xlink="http://www.w3.org/1999/xlink"
     xmlns:gadfly="http://www.gadflyjl.org/ns"
     version="1.2"
     width="76.2mm" height="50.8mm" viewBox="0 0 76.2 50.8"
     stroke="none"
     fill="#000000"
     stroke-width="0.3"
     font-size="3.88"
>
<g class="plotroot xscalable yscalable" id="img-8bacd303-1">
<g clip-path="url(#img-8bacd303-2)">
  <g id="img-8bacd303-3">
    <g pointer-events="visible" opacity="1" fill="#000000" fill-opacity="0.000" stroke="#000000" stroke-opacity="0.000" class="guide background" id="img-8bacd303-4">
      <rect x="5" y="10.94" width="66.2" height="34.86"/>
    </g>
    <g class="guide ygridlines xfixed" stroke-dasharray="0.5,0.5" stroke-width="0.2" stroke="#D0D0E0" id="img-8bacd303-5">
      <path fill="none" d="M5,43.8 L 71.2 43.8"/>
      <path fill="none" d="M5,36.08 L 71.2 36.08"/>
      <path fill="none" d="M5,28.37 L 71.2 28.37"/>
      <path fill="none" d="M5,20.65 L 71.2 20.65"/>
      <path fill="none" d="M5,12.94 L 71.2 12.94"/>
    </g>
    <g class="guide xgridlines yfixed" stroke-dasharray="0.5,0.5" stroke-width="0.2" stroke="#D0D0E0" id="img-8bacd303-6">
      <path fill="none" d="M7,10.94 L 7 45.8"/>
      <path fill="none" d="M22.55,10.94 L 22.55 45.8"/>
      <path fill="none" d="M38.1,10.94 L 38.1 45.8"/>
      <path fill="none" d="M53.65,10.94 L 53.65 45.8"/>
      <path fill="none" d="M69.2,10.94 L 69.2 45.8"/>
    </g>
    <g class="plotpanel" id="img-8bacd303-7">
      <g stroke-width="0.71" fill="#000000" fill-opacity="0.000" class="geometry" stroke-dasharray="none" stroke="#00BFFF" id="img-8bacd303-8">
        <path fill="none" d="M7,43.77 L 7.21 43.76 7.42 43.76 7.62 43.75 7.83 43.74 8.04 43.73 8.25 43.72 8.46 43.7 8.66 43.69 8.87 43.67 9.08 43.65 9.29 43.63 9.5 43.6 9.7 43.57 9.91 43.54 10.12 43.5 10.33 43.46 10.54 43.41 10.74 43.36 10.95 43.3 11.16 43.23 11.37 43.16 11.58 43.08 11.78 42.98 11.99 42.88 12.2 42.77 12.41 42.65 12.62 42.51 12.82 42.37 13.03 42.2 13.24 42.03 13.45 41.84 13.66 41.63 13.86 41.4 14.07 41.16 14.28 40.89 14.49 40.61 14.7 40.31 14.91 39.98 15.11 39.64 15.32 39.27 15.53 38.88 15.74 38.46 15.95 38.02 16.15 37.56 16.36 37.07 16.57 36.56 16.78 36.03 16.99 35.48 17.19 34.9 17.4 34.3 17.61 33.68 17.82 33.04 18.03 32.39 18.23 31.72 18.44 31.03 18.65 30.34 18.86 29.63 19.07 28.91 19.27 28.2 19.48 27.47 19.69 26.75 19.9 26.04 20.11 25.32 20.31 24.62 20.52 23.94 20.73 23.26 20.94 22.61 21.15 21.98 21.35 21.38 21.56 20.8 21.77 20.26 21.98 19.75 22.19 19.28 22.39 18.85 22.6 18.47 22.81 18.13 23.02 17.83 23.23 17.58 23.43 17.39 23.64 17.24 23.85 17.15 24.06 17.11 24.27 17.13 24.47 17.19 24.68 17.31 24.89 17.48 25.1 17.7 25.31 17.97 25.51 18.29 25.72 18.65 25.93 19.06 26.14 19.51 26.35 20 26.55 20.52 26.76 21.07 26.97 21.66 27.18 22.27 27.39 22.91 27.59 23.57 27.8 24.24 28.01 24.93 28.22 25.62 28.43 26.33 28.63 27.04 28.84 27.75 29.05 28.45 29.26 29.16 29.47 29.85 29.67 30.54 29.88 31.21 30.09 31.87 30.3 32.51 30.51 33.13 30.72 33.73 30.92 34.31 31.13 34.87 31.34 35.4 31.55 35.91 31.76 36.4 31.96 36.85 32.17 37.29 32.38 37.69 32.59 38.07 32.8 38.42 33 38.74 33.21 39.04 33.42 39.31 33.63 39.56 33.84 39.78 34.04 39.98 34.25 40.15 34.46 40.3 34.67 40.43 34.88 40.54 35.08 40.62 35.29 40.69 35.5 40.74 35.71 40.77 35.92 40.78 36.12 40.77 36.33 40.75 36.54 40.71 36.75 40.66 36.96 40.59 37.16 40.51 37.37 40.42 37.58 40.31 37.79 40.2 38 40.07 38.2 39.94 38.41 39.79 38.62 39.64 38.83 39.48 39.04 39.31 39.24 39.13 39.45 38.95 39.66 38.76 39.87 38.57 40.08 38.37 40.28 38.17 40.49 37.96 40.7 37.75 40.91 37.54 41.12 37.33 41.32 37.12 41.53 36.9 41.74 36.69 41.95 36.48 42.16 36.26 42.36 36.05 42.57 35.85 42.78 35.64 42.99 35.44 43.2 35.25 43.4 35.06 43.61 34.87 43.82 34.69 44.03 34.52 44.24 34.35 44.44 34.2 44.65 34.05 44.86 33.91 45.07 33.77 45.28 33.65 45.48 33.54 45.69 33.44 45.9 33.35 46.11 33.27 46.32 33.2 46.53 33.14 46.73 33.09 46.94 33.06 47.15 33.04 47.36 33.03 47.57 33.03 47.77 33.04 47.98 33.07 48.19 33.11 48.4 33.16 48.61 33.22 48.81 33.29 49.02 33.37 49.23 33.47 49.44 33.57 49.65 33.69 49.85 33.81 50.06 33.95 50.27 34.09 50.48 34.24 50.69 34.41 50.89 34.57 51.1 34.75 51.31 34.93 51.52 35.12 51.73 35.31 51.93 35.51 52.14 35.71 52.35 35.92 52.56 36.13 52.77 36.34 52.97 36.56 53.18 36.77 53.39 36.99 53.6 37.21 53.81 37.43 54.01 37.65 54.22 37.86 54.43 38.08 54.64 38.29 54.85 38.51 55.05 38.72 55.26 38.92 55.47 39.13 55.68 39.33 55.89 39.52 56.09 39.72 56.3 39.9 56.51 40.09 56.72 40.27 56.93 40.44 57.13 40.61 57.34 40.77 57.55 40.93 57.76 41.09 57.97 41.23 58.17 41.38 58.38 41.51 58.59 41.65 58.8 41.77 59.01 41.89 59.21 42.01 59.42 42.12 59.63 42.23 59.84 42.33 60.05 42.42 60.25 42.51 60.46 42.6 60.67 42.68 60.88 42.76 61.09 42.83 61.29 42.9 61.5 42.97 61.71 43.03 61.92 43.09 62.13 43.14 62.34 43.19 62.54 43.24 62.75 43.28 62.96 43.32 63.17 43.36 63.38 43.4 63.58 43.43 63.79 43.46 64 43.49 64.21 43.52 64.42 43.54 64.62 43.56 64.83 43.58 65.04 43.6 65.25 43.62 65.46 43.64 65.66 43.65 65.87 43.67 66.08 43.68 66.29 43.69 66.5 43.7 66.7 43.71 66.91 43.72 67.12 43.73 67.33 43.74 67.54 43.74 67.74 43.75 67.95 43.75 68.16 43.76 68.37 43.76 68.58 43.77 68.78 43.77 68.99 43.77 69.2 43.78"/>
      </g>
    </g>
  </g>
</g>
  <g font-size="4.23" font-family="'PT Sans','Helvetica Neue','Helvetica',sans-serif" fill="#564A55" stroke="#000000" stroke-opacity="0.000" id="img-8bacd303-9">
    <text x="38.1" y="5" text-anchor="middle" dy="0.6em">Original distribution</text>
  </g>
</g>
<defs>
  <clipPath id="img-8bacd303-2">
  <path d="M5,10.94 L 71.2 10.94 71.2 45.8 5 45.8" />
</clipPath>
</defs>
</svg>
