<?xml version="1.0" encoding="UTF-8"?>
<svg xmlns="http://www.w3.org/2000/svg"
     xmlns:xlink="http://www.w3.org/1999/xlink"
     xmlns:gadfly="http://www.gadflyjl.org/ns"
     version="1.2"
     width="76.2mm" height="50.8mm" viewBox="0 0 76.2 50.8"
     stroke="none"
     fill="#000000"
     stroke-width="0.3"
     font-size="3.88"
>
<g class="plotroot xscalable yscalable" id="img-b9ec2849-1">
<g clip-path="url(#img-b9ec2849-2)">
  <g id="img-b9ec2849-3">
    <g pointer-events="visible" opacity="1" fill="#000000" fill-opacity="0.000" stroke="#000000" stroke-opacity="0.000" class="guide background" id="img-b9ec2849-4">
      <rect x="5" y="10.28" width="66.2" height="35.52"/>
    </g>
    <g class="guide ygridlines xfixed" stroke-dasharray="0.5,0.5" stroke-width="0.2" stroke="#D0D0E0" id="img-b9ec2849-5">
      <path fill="none" d="M5,43.8 L 71.2 43.8"/>
      <path fill="none" d="M5,35.92 L 71.2 35.92"/>
      <path fill="none" d="M5,28.04 L 71.2 28.04"/>
      <path fill="none" d="M5,20.16 L 71.2 20.16"/>
      <path fill="none" d="M5,12.28 L 71.2 12.28"/>
    </g>
    <g class="guide xgridlines yfixed" stroke-dasharray="0.5,0.5" stroke-width="0.2" stroke="#D0D0E0" id="img-b9ec2849-6">
      <path fill="none" d="M7,10.28 L 7 45.8"/>
      <path fill="none" d="M22.55,10.28 L 22.55 45.8"/>
      <path fill="none" d="M38.1,10.28 L 38.1 45.8"/>
      <path fill="none" d="M53.65,10.28 L 53.65 45.8"/>
      <path fill="none" d="M69.2,10.28 L 69.2 45.8"/>
    </g>
    <g class="plotpanel" id="img-b9ec2849-7">
      <g stroke-width="0.71" fill="#000000" fill-opacity="0.000" class="geometry" stroke-dasharray="none" stroke="#00BFFF" id="img-b9ec2849-8">
        <path fill="none" d="M7,43.77 L 7.21 43.76 7.42 43.75 7.62 43.75 7.83 43.74 8.04 43.73 8.25 43.72 8.46 43.7 8.66 43.69 8.87 43.67 9.08 43.65 9.29 43.62 9.5 43.6 9.7 43.57 9.91 43.53 10.12 43.5 10.33 43.45 10.54 43.4 10.74 43.35 10.95 43.29 11.16 43.22 11.37 43.14 11.58 43.06 11.78 42.97 11.99 42.86 12.2 42.75 12.41 42.62 12.62 42.49 12.82 42.34 13.03 42.17 13.24 41.99 13.45 41.79 13.66 41.58 13.86 41.35 14.07 41.1 14.28 40.83 14.49 40.54 14.7 40.23 14.91 39.9 15.11 39.55 15.32 39.17 15.53 38.77 15.74 38.35 15.95 37.9 16.15 37.43 16.36 36.93 16.57 36.41 16.78 35.87 16.99 35.3 17.19 34.71 17.4 34.1 17.61 33.47 17.82 32.81 18.03 32.15 18.23 31.46 18.44 30.76 18.65 30.05 18.86 29.33 19.07 28.6 19.27 27.86 19.48 27.13 19.69 26.39 19.9 25.66 20.11 24.93 20.31 24.22 20.52 23.51 20.73 22.83 20.94 22.16 21.15 21.52 21.35 20.9 21.56 20.31 21.77 19.76 21.98 19.24 22.19 18.76 22.39 18.32 22.6 17.93 22.81 17.58 23.02 17.28 23.23 17.03 23.43 16.83 23.64 16.68 23.85 16.59 24.06 16.55 24.27 16.56 24.47 16.63 24.68 16.75 24.89 16.92 25.1 17.15 25.31 17.42 25.51 17.75 25.72 18.12 25.93 18.53 26.14 18.99 26.35 19.49 26.55 20.02 26.76 20.59 26.97 21.19 27.18 21.81 27.39 22.46 27.59 23.13 27.8 23.82 28.01 24.52 28.22 25.24 28.43 25.96 28.63 26.68 28.84 27.41 29.05 28.13 29.26 28.85 29.47 29.56 29.67 30.25 29.88 30.94 30.09 31.61 30.3 32.27 30.51 32.9 30.72 33.52 30.92 34.11 31.13 34.68 31.34 35.23 31.55 35.75 31.76 36.24 31.96 36.71 32.17 37.15 32.38 37.56 32.59 37.95 32.8 38.3 33 38.63 33.21 38.94 33.42 39.22 33.63 39.47 33.84 39.7 34.04 39.9 34.25 40.08 34.46 40.23 34.67 40.36 34.88 40.47 35.08 40.56 35.29 40.62 35.5 40.67 35.71 40.7 35.92 40.71 36.12 40.7 36.33 40.68 36.54 40.64 36.75 40.59 36.96 40.52 37.16 40.44 37.37 40.35 37.58 40.24 37.79 40.12 38 39.99 38.2 39.85 38.41 39.71 38.62 39.55 38.83 39.38 39.04 39.21 39.24 39.03 39.45 38.84 39.66 38.65 39.87 38.45 40.08 38.25 40.28 38.05 40.49 37.84 40.7 37.62 40.91 37.41 41.12 37.19 41.32 36.97 41.53 36.76 41.74 36.54 41.95 36.32 42.16 36.1 42.36 35.89 42.57 35.68 42.78 35.47 42.99 35.27 43.2 35.07 43.4 34.87 43.61 34.68 43.82 34.5 44.03 34.32 44.24 34.15 44.44 33.99 44.65 33.84 44.86 33.69 45.07 33.56 45.28 33.44 45.48 33.32 45.69 33.22 45.9 33.12 46.11 33.04 46.32 32.97 46.53 32.91 46.73 32.87 46.94 32.83 47.15 32.81 47.36 32.8 47.57 32.8 47.77 32.81 47.98 32.84 48.19 32.88 48.4 32.93 48.61 32.99 48.81 33.07 49.02 33.15 49.23 33.25 49.44 33.35 49.65 33.47 49.85 33.6 50.06 33.74 50.27 33.89 50.48 34.04 50.69 34.21 50.89 34.38 51.1 34.56 51.31 34.74 51.52 34.93 51.73 35.13 51.93 35.33 52.14 35.54 52.35 35.75 52.56 35.97 52.77 36.18 52.97 36.4 53.18 36.62 53.39 36.85 53.6 37.07 53.81 37.29 54.01 37.52 54.22 37.74 54.43 37.96 54.64 38.18 54.85 38.39 55.05 38.61 55.26 38.82 55.47 39.03 55.68 39.23 55.89 39.43 56.09 39.63 56.3 39.82 56.51 40.01 56.72 40.19 56.93 40.37 57.13 40.54 57.34 40.71 57.55 40.87 57.76 41.03 57.97 41.18 58.17 41.33 58.38 41.47 58.59 41.6 58.8 41.73 59.01 41.85 59.21 41.97 59.42 42.08 59.63 42.19 59.84 42.3 60.05 42.39 60.25 42.49 60.46 42.57 60.67 42.66 60.88 42.74 61.09 42.81 61.29 42.88 61.5 42.95 61.71 43.01 61.92 43.07 62.13 43.13 62.34 43.18 62.54 43.23 62.75 43.27 62.96 43.31 63.17 43.35 63.38 43.39 63.58 43.42 63.79 43.45 64 43.48 64.21 43.51 64.42 43.54 64.62 43.56 64.83 43.58 65.04 43.6 65.25 43.62 65.46 43.63 65.66 43.65 65.87 43.66 66.08 43.68 66.29 43.69 66.5 43.7 66.7 43.71 66.91 43.72 67.12 43.73 67.33 43.73 67.54 43.74 67.74 43.75 67.95 43.75 68.16 43.76 68.37 43.76 68.58 43.77 68.78 43.77 68.99 43.77 69.2 43.78"/>
      </g>
    </g>
  </g>
</g>
  <g font-size="3.53" font-family="'PT Sans','Helvetica Neue','Helvetica',sans-serif" fill="#564A55" stroke="#000000" stroke-opacity="0.000" id="img-b9ec2849-9">
    <text x="38.1" y="5" text-anchor="middle" dy="0.6em">Original distribution: mixture of two Gaussians</text>
  </g>
</g>
<defs>
  <clipPath id="img-b9ec2849-2">
  <path d="M5,10.28 L 71.2 10.28 71.2 45.8 5 45.8" />
</clipPath>
</defs>
</svg>
