<?xml version="1.0" encoding="UTF-8"?>
<svg xmlns="http://www.w3.org/2000/svg"
     xmlns:xlink="http://www.w3.org/1999/xlink"
     xmlns:gadfly="http://www.gadflyjl.org/ns"
     version="1.2"
     width="76.2mm" height="50.8mm" viewBox="0 0 76.2 50.8"
     stroke="none"
     fill="#000000"
     stroke-width="0.3"
     font-size="3.88"
>
<g class="plotroot xscalable yscalable" id="img-484ecdc3-1">
<g clip-path="url(#img-484ecdc3-2)">
  <g id="img-484ecdc3-3">
    <g pointer-events="visible" opacity="1" fill="#000000" fill-opacity="0.000" stroke="#000000" stroke-opacity="0.000" class="guide background" id="img-484ecdc3-4">
      <rect x="5" y="10.28" width="66.2" height="35.52"/>
    </g>
    <g class="guide ygridlines xfixed" stroke-dasharray="0.5,0.5" stroke-width="0.2" stroke="#D0D0E0" id="img-484ecdc3-5">
      <path fill="none" d="M5,43.8 L 71.2 43.8"/>
      <path fill="none" d="M5,35.92 L 71.2 35.92"/>
      <path fill="none" d="M5,28.04 L 71.2 28.04"/>
      <path fill="none" d="M5,20.16 L 71.2 20.16"/>
      <path fill="none" d="M5,12.28 L 71.2 12.28"/>
    </g>
    <g class="guide xgridlines yfixed" stroke-dasharray="0.5,0.5" stroke-width="0.2" stroke="#D0D0E0" id="img-484ecdc3-6">
      <path fill="none" d="M7,10.28 L 7 45.8"/>
      <path fill="none" d="M22.55,10.28 L 22.55 45.8"/>
      <path fill="none" d="M38.1,10.28 L 38.1 45.8"/>
      <path fill="none" d="M53.65,10.28 L 53.65 45.8"/>
      <path fill="none" d="M69.2,10.28 L 69.2 45.8"/>
    </g>
    <g class="plotpanel" id="img-484ecdc3-7">
      <g stroke-width="0.71" fill="#000000" fill-opacity="0.000" class="geometry" stroke-dasharray="none" stroke="#00BFFF" id="img-484ecdc3-8">
        <path fill="none" d="M7,43.32 L 7.21 43.32 7.42 43.32 7.62 43.32 7.83 43.32 8.04 43.32 8.25 43.32 8.46 43.32 8.66 43.32 8.87 43.32 9.08 43.32 9.29 43.32 9.5 43.32 9.7 43.32 9.91 43.32 10.12 43.32 10.33 43.32 10.54 43.32 10.74 43.32 10.95 43.32 11.16 43.32 11.37 43.32 11.58 43.32 11.78 43.32 11.99 43.32 12.2 43.32 12.41 43.32 12.62 43.32 12.82 43.32 13.03 43.32 13.24 43.32 13.45 40.38 13.66 40.38 13.86 40.38 14.07 40.38 14.28 40.38 14.49 40.38 14.7 40.38 14.91 40.38 15.11 40.38 15.32 36.75 15.53 36.75 15.74 36.75 15.95 36.75 16.15 36.75 16.36 36.75 16.57 36.75 16.78 36.75 16.99 36.75 17.19 36.75 17.4 32.88 17.61 32.88 17.82 32.88 18.03 32.88 18.23 27.95 18.44 27.95 18.65 27.95 18.86 27.95 19.07 27.95 19.27 27.95 19.48 27.95 19.69 27.95 19.9 27.95 20.11 22.77 20.31 22.77 20.52 22.77 20.73 22.77 20.94 22.77 21.15 22.77 21.35 17.9 21.56 17.9 21.77 17.9 21.98 17.9 22.19 17.9 22.39 17.9 22.6 17.9 22.81 17.9 23.02 17.9 23.23 17.9 23.43 17.9 23.64 17.65 23.85 17.65 24.06 17.65 24.27 17.65 24.47 17.65 24.68 17.65 24.89 17.65 25.1 17.65 25.31 17.65 25.51 17.65 25.72 17.65 25.93 17.65 26.14 17.65 26.35 17.65 26.55 17.65 26.76 22.73 26.97 22.73 27.18 22.73 27.39 22.73 27.59 22.73 27.8 22.73 28.01 26.89 28.22 26.89 28.43 26.89 28.63 26.89 28.84 26.89 29.05 26.89 29.26 26.89 29.47 32.03 29.67 32.03 29.88 32.03 30.09 32.03 30.3 32.03 30.51 32.03 30.72 32.03 30.92 32.03 31.13 37.14 31.34 37.14 31.55 37.14 31.76 37.14 31.96 37.14 32.17 37.14 32.38 37.14 32.59 37.14 32.8 37.14 33 37.14 33.21 40.27 33.42 40.27 33.63 40.27 33.84 40.27 34.04 40.27 34.25 40.27 34.46 40.27 34.67 40.27 34.88 40.27 35.08 40.27 35.29 40.27 35.5 40.27 35.71 40.27 35.92 40.27 36.12 40.27 36.33 40.27 36.54 40.27 36.75 40.27 36.96 40.27 37.16 40.27 37.37 40.27 37.58 40.27 37.79 40.27 38 40.27 38.2 40.27 38.41 40.27 38.62 38.54 38.83 38.54 39.04 38.54 39.24 38.54 39.45 38.54 39.66 38.54 39.87 38.54 40.08 38.54 40.28 38.54 40.49 38.54 40.7 38.54 40.91 38.54 41.12 36.27 41.32 36.27 41.53 36.27 41.74 36.27 41.95 36.27 42.16 36.27 42.36 36.27 42.57 36.27 42.78 36.27 42.99 33.58 43.2 33.58 43.4 33.58 43.61 33.58 43.82 33.58 44.03 33.58 44.24 33.58 44.44 33.58 44.65 33.58 44.86 33.58 45.07 33.58 45.28 33.58 45.48 33.58 45.69 33.58 45.9 33.58 46.11 33.58 46.32 33.58 46.53 33.58 46.73 33.58 46.94 33.42 47.15 33.42 47.36 33.42 47.57 33.42 47.77 33.42 47.98 33.42 48.19 33.42 48.4 33.42 48.61 33.42 48.81 33.42 49.02 33.42 49.23 33.42 49.44 33.42 49.65 33.42 49.85 33.42 50.06 33.42 50.27 33.42 50.48 35.89 50.69 35.89 50.89 35.89 51.1 35.89 51.31 35.89 51.52 35.89 51.73 35.89 51.93 35.89 52.14 35.89 52.35 35.89 52.56 35.89 52.77 35.89 52.97 35.89 53.18 35.89 53.39 35.89 53.6 35.89 53.81 39.13 54.01 39.13 54.22 39.13 54.43 39.13 54.64 39.13 54.85 39.13 55.05 39.13 55.26 39.13 55.47 39.13 55.68 39.13 55.89 39.13 56.09 39.13 56.3 39.13 56.51 39.13 56.72 39.13 56.93 39.13 57.13 39.13 57.34 39.13 57.55 39.13 57.76 42.71 57.97 42.71 58.17 42.71 58.38 42.71 58.59 42.71 58.8 42.71 59.01 42.71 59.21 42.71 59.42 42.71 59.63 42.71 59.84 42.71 60.05 42.71 60.25 42.71 60.46 42.71 60.67 42.71 60.88 42.71 61.09 42.71 61.29 42.71 61.5 42.71 61.71 42.71 61.92 42.71 62.13 42.71 62.34 42.71 62.54 42.71 62.75 42.71 62.96 42.71 63.17 42.71 63.38 42.71 63.58 42.71 63.79 42.71 64 42.71 64.21 42.71 64.42 43.68 64.62 43.68 64.83 43.68 65.04 43.68 65.25 43.68 65.46 43.68 65.66 43.68 65.87 43.68 66.08 43.68 66.29 43.68 66.5 43.68 66.7 43.68 66.91 43.68 67.12 43.68 67.33 43.68 67.54 43.68 67.74 43.68 67.95 43.68 68.16 43.68 68.37 43.68 68.58 43.68 68.78 43.68 68.99 43.68 69.2 43.68"/>
      </g>
    </g>
  </g>
</g>
  <g font-size="3.53" font-family="'PT Sans','Helvetica Neue','Helvetica',sans-serif" fill="#564A55" stroke="#000000" stroke-opacity="0.000" id="img-484ecdc3-9">
    <text x="38.1" y="5" text-anchor="middle" dy="0.6em">Non-private density estimate</text>
  </g>
</g>
<defs>
  <clipPath id="img-484ecdc3-2">
  <path d="M5,10.28 L 71.2 10.28 71.2 45.8 5 45.8" />
</clipPath>
</defs>
</svg>
