<?xml version="1.0" encoding="UTF-8"?>
<svg xmlns="http://www.w3.org/2000/svg"
     xmlns:xlink="http://www.w3.org/1999/xlink"
     xmlns:gadfly="http://www.gadflyjl.org/ns"
     version="1.2"
     width="76.2mm" height="50.8mm" viewBox="0 0 76.2 50.8"
     stroke="none"
     fill="#000000"
     stroke-width="0.3"
     font-size="3.88"
>
<g class="plotroot xscalable yscalable" id="img-ccfddeca-1">
<g clip-path="url(#img-ccfddeca-2)">
  <g id="img-ccfddeca-3">
    <g pointer-events="visible" opacity="1" fill="#000000" fill-opacity="0.000" stroke="#000000" stroke-opacity="0.000" class="guide background" id="img-ccfddeca-4">
      <rect x="5" y="10.94" width="66.2" height="34.86"/>
    </g>
    <g class="guide ygridlines xfixed" stroke-dasharray="0.5,0.5" stroke-width="0.2" stroke="#D0D0E0" id="img-ccfddeca-5">
      <path fill="none" d="M5,43.8 L 71.2 43.8"/>
      <path fill="none" d="M5,36.08 L 71.2 36.08"/>
      <path fill="none" d="M5,28.37 L 71.2 28.37"/>
      <path fill="none" d="M5,20.65 L 71.2 20.65"/>
      <path fill="none" d="M5,12.94 L 71.2 12.94"/>
    </g>
    <g class="guide xgridlines yfixed" stroke-dasharray="0.5,0.5" stroke-width="0.2" stroke="#D0D0E0" id="img-ccfddeca-6">
      <path fill="none" d="M7,10.94 L 7 45.8"/>
      <path fill="none" d="M22.55,10.94 L 22.55 45.8"/>
      <path fill="none" d="M38.1,10.94 L 38.1 45.8"/>
      <path fill="none" d="M53.65,10.94 L 53.65 45.8"/>
      <path fill="none" d="M69.2,10.94 L 69.2 45.8"/>
    </g>
    <g class="plotpanel" id="img-ccfddeca-7">
      <g stroke-width="0.71" fill="#000000" fill-opacity="0.000" class="geometry" stroke-dasharray="none" stroke="#00BFFF" id="img-ccfddeca-8">
        <path fill="none" d="M7,43.29 L 7.21 43.29 7.42 43.29 7.62 43.29 7.83 43.29 8.04 43.29 8.25 43.29 8.46 43.29 8.66 43.29 8.87 43.29 9.08 43.29 9.29 43.29 9.5 43.29 9.7 43.29 9.91 43.29 10.12 43.29 10.33 43.29 10.54 43.29 10.74 43.29 10.95 43.29 11.16 43.29 11.37 43.29 11.58 43.29 11.78 43.29 11.99 43.29 12.2 43.29 12.41 43.29 12.62 43.29 12.82 43.29 13.03 43.29 13.24 40.36 13.45 40.36 13.66 40.36 13.86 40.36 14.07 40.36 14.28 40.36 14.49 40.36 14.7 40.36 14.91 40.36 15.11 40.36 15.32 40.36 15.53 40.36 15.74 40.36 15.95 35.84 16.15 35.84 16.36 35.84 16.57 35.84 16.78 35.84 16.99 35.84 17.19 35.84 17.4 35.84 17.61 30.79 17.82 30.79 18.03 30.79 18.23 30.79 18.44 30.79 18.65 30.79 18.86 30.79 19.07 30.79 19.27 30.79 19.48 24.99 19.69 24.99 19.9 24.99 20.11 24.99 20.31 24.99 20.52 24.99 20.73 24.99 20.94 20.54 21.15 20.54 21.35 20.54 21.56 20.54 21.77 20.54 21.98 20.54 22.19 17.45 22.39 17.45 22.6 17.45 22.81 17.45 23.02 17.45 23.23 17.45 23.43 17.45 23.64 17.45 23.85 17.45 24.06 17.45 24.27 17.45 24.47 17.45 24.68 17.45 24.89 17.45 25.1 17.45 25.31 19.7 25.51 19.7 25.72 19.7 25.93 19.7 26.14 19.7 26.35 22.02 26.55 22.02 26.76 22.02 26.97 22.02 27.18 22.02 27.39 22.02 27.59 26.81 27.8 26.81 28.01 26.81 28.22 26.81 28.43 26.81 28.63 26.81 28.84 26.81 29.05 26.81 29.26 31.04 29.47 31.04 29.67 31.04 29.88 31.04 30.09 31.04 30.3 31.04 30.51 34.57 30.72 34.57 30.92 34.57 31.13 34.57 31.34 34.57 31.55 38.49 31.76 38.49 31.96 38.49 32.17 38.49 32.38 38.49 32.59 38.49 32.8 38.49 33 38.49 33.21 38.49 33.42 38.49 33.63 38.49 33.84 38.49 34.04 38.49 34.25 38.49 34.46 40.34 34.67 40.34 34.88 40.34 35.08 40.34 35.29 40.34 35.5 40.34 35.71 40.34 35.92 40.34 36.12 40.34 36.33 40.34 36.54 40.34 36.75 40.34 36.96 40.34 37.16 40.34 37.37 40.34 37.58 40.34 37.79 40.34 38 40.34 38.2 40.34 38.41 40.34 38.62 40.34 38.83 40.34 39.04 37.21 39.24 37.21 39.45 37.21 39.66 37.21 39.87 37.21 40.08 37.21 40.28 37.21 40.49 37.21 40.7 37.21 40.91 37.21 41.12 37.21 41.32 37.21 41.53 37.21 41.74 37.21 41.95 37.21 42.16 37.21 42.36 37.21 42.57 37.21 42.78 37.21 42.99 37.21 43.2 33.88 43.4 33.88 43.61 33.88 43.82 33.88 44.03 33.88 44.24 33.88 44.44 33.88 44.65 33.88 44.86 33.88 45.07 33.88 45.28 33.88 45.48 33.88 45.69 33.88 45.9 33.88 46.11 33.6 46.32 33.6 46.53 33.6 46.73 33.6 46.94 33.6 47.15 33.6 47.36 33.6 47.57 33.6 47.77 33.6 47.98 33.6 48.19 33.6 48.4 33.6 48.61 33.6 48.81 33.6 49.02 33.6 49.23 33.6 49.44 33.6 49.65 33.6 49.85 33.6 50.06 33.6 50.27 33.6 50.48 33.6 50.69 33.6 50.89 33.6 51.1 33.6 51.31 33.6 51.52 36.56 51.73 36.56 51.93 36.56 52.14 36.56 52.35 36.56 52.56 36.56 52.77 36.56 52.97 36.56 53.18 36.56 53.39 36.56 53.6 36.56 53.81 36.56 54.01 36.56 54.22 36.56 54.43 39.82 54.64 39.82 54.85 39.82 55.05 39.82 55.26 39.82 55.47 39.82 55.68 39.82 55.89 39.82 56.09 39.82 56.3 39.82 56.51 39.82 56.72 39.82 56.93 39.82 57.13 39.82 57.34 39.82 57.55 39.82 57.76 39.82 57.97 42.8 58.17 42.8 58.38 42.8 58.59 42.8 58.8 42.8 59.01 42.8 59.21 42.8 59.42 42.8 59.63 42.8 59.84 42.8 60.05 42.8 60.25 42.8 60.46 42.8 60.67 42.8 60.88 42.8 61.09 42.8 61.29 42.8 61.5 42.8 61.71 42.8 61.92 42.8 62.13 42.8 62.34 42.8 62.54 42.8 62.75 42.8 62.96 42.8 63.17 42.8 63.38 42.8 63.58 42.8 63.79 42.8 64 42.8 64.21 42.8 64.42 42.8 64.62 42.8 64.83 42.8 65.04 43.71 65.25 43.71 65.46 43.71 65.66 43.71 65.87 43.71 66.08 43.71 66.29 43.71 66.5 43.71 66.7 43.71 66.91 43.71 67.12 43.71 67.33 43.71 67.54 43.71 67.74 43.71 67.95 43.71 68.16 43.71 68.37 43.71 68.58 43.71 68.78 43.71 68.99 43.71 69.2 43.71"/>
      </g>
    </g>
  </g>
</g>
  <g font-size="4.23" font-family="'PT Sans','Helvetica Neue','Helvetica',sans-serif" fill="#564A55" stroke="#000000" stroke-opacity="0.000" id="img-ccfddeca-9">
    <text x="38.1" y="5" text-anchor="middle" dy="0.6em">Non-private density estimate</text>
  </g>
</g>
<defs>
  <clipPath id="img-ccfddeca-2">
  <path d="M5,10.94 L 71.2 10.94 71.2 45.8 5 45.8" />
</clipPath>
</defs>
</svg>
