<?xml version="1.0" encoding="UTF-8"?>
<svg xmlns="http://www.w3.org/2000/svg"
     xmlns:xlink="http://www.w3.org/1999/xlink"
     xmlns:gadfly="http://www.gadflyjl.org/ns"
     version="1.2"
     width="76.2mm" height="50.8mm" viewBox="0 0 76.2 50.8"
     stroke="none"
     fill="#000000"
     stroke-width="0.3"
     font-size="3.88"
>
<g class="plotroot xscalable yscalable" id="img-850cad1f-1">
<g clip-path="url(#img-850cad1f-2)">
  <g id="img-850cad1f-3">
    <g pointer-events="visible" opacity="1" fill="#000000" fill-opacity="0.000" stroke="#000000" stroke-opacity="0.000" class="guide background" id="img-850cad1f-4">
      <rect x="5" y="10.94" width="66.2" height="34.86"/>
    </g>
    <g class="guide ygridlines xfixed" stroke-dasharray="0.5,0.5" stroke-width="0.2" stroke="#D0D0E0" id="img-850cad1f-5">
      <path fill="none" d="M5,43.8 L 71.2 43.8"/>
      <path fill="none" d="M5,36.08 L 71.2 36.08"/>
      <path fill="none" d="M5,28.37 L 71.2 28.37"/>
      <path fill="none" d="M5,20.65 L 71.2 20.65"/>
      <path fill="none" d="M5,12.94 L 71.2 12.94"/>
    </g>
    <g class="guide xgridlines yfixed" stroke-dasharray="0.5,0.5" stroke-width="0.2" stroke="#D0D0E0" id="img-850cad1f-6">
      <path fill="none" d="M7,10.94 L 7 45.8"/>
      <path fill="none" d="M22.55,10.94 L 22.55 45.8"/>
      <path fill="none" d="M38.1,10.94 L 38.1 45.8"/>
      <path fill="none" d="M53.65,10.94 L 53.65 45.8"/>
      <path fill="none" d="M69.2,10.94 L 69.2 45.8"/>
    </g>
    <g class="plotpanel" id="img-850cad1f-7">
      <g stroke-width="0.71" fill="#000000" fill-opacity="0.000" class="geometry" stroke-dasharray="none" stroke="#00BFFF" id="img-850cad1f-8">
        <path fill="none" d="M7,43.38 L 7.21 43.38 7.42 43.38 7.62 43.38 7.83 43.38 8.04 43.38 8.25 43.38 8.46 43.38 8.66 43.38 8.87 43.38 9.08 43.38 9.29 43.38 9.5 43.38 9.7 43.38 9.91 43.38 10.12 43.38 10.33 43.38 10.54 43.38 10.74 43.38 10.95 43.38 11.16 43.38 11.37 43.38 11.58 43.38 11.78 43.38 11.99 43.38 12.2 43.38 12.41 43.38 12.62 43.38 12.82 43.38 13.03 41.31 13.24 41.31 13.45 41.31 13.66 41.31 13.86 41.31 14.07 41.31 14.28 41.31 14.49 41.31 14.7 38.92 14.91 38.92 15.11 38.92 15.32 38.92 15.53 38.92 15.74 38.92 15.95 38.92 16.15 38.92 16.36 35.56 16.57 35.56 16.78 35.56 16.99 35.56 17.19 35.56 17.4 35.56 17.61 32.16 17.82 32.16 18.03 32.16 18.23 32.16 18.44 32.16 18.65 28.4 18.86 28.4 19.07 28.4 19.27 28.4 19.48 28.4 19.69 23.29 19.9 23.29 20.11 23.29 20.31 23.29 20.52 23.29 20.73 23.29 20.94 23.29 21.15 23.29 21.35 23.29 21.56 18.54 21.77 18.54 21.98 18.54 22.19 18.54 22.39 18.54 22.6 18.54 22.81 18.54 23.02 18.54 23.23 18.54 23.43 18.54 23.64 18.41 23.85 18.41 24.06 18.41 24.27 18.41 24.47 18.41 24.68 18.41 24.89 18.41 25.1 18.41 25.31 18.41 25.51 18.41 25.72 18.41 25.93 18.41 26.14 18.41 26.35 18.41 26.55 18.41 26.76 23.98 26.97 23.98 27.18 23.98 27.39 23.98 27.59 23.98 27.8 23.98 28.01 23.98 28.22 23.98 28.43 23.98 28.63 29.47 28.84 29.47 29.05 29.47 29.26 29.47 29.47 29.47 29.67 32.76 29.88 32.76 30.09 32.76 30.3 32.76 30.51 32.76 30.72 32.76 30.92 32.76 31.13 37.07 31.34 37.07 31.55 37.07 31.76 37.07 31.96 37.07 32.17 37.07 32.38 37.07 32.59 37.07 32.8 37.07 33 37.07 33.21 40.25 33.42 40.25 33.63 40.25 33.84 40.25 34.04 40.25 34.25 40.25 34.46 40.25 34.67 40.25 34.88 40.25 35.08 40.25 35.29 40.25 35.5 40.25 35.71 40.25 35.92 40.25 36.12 40.25 36.33 40.25 36.54 40.25 36.75 40.25 36.96 40.25 37.16 40.25 37.37 40.25 37.58 40.25 37.79 40.25 38 40.25 38.2 40.25 38.41 38.02 38.62 38.02 38.83 38.02 39.04 38.02 39.24 38.02 39.45 38.02 39.66 38.02 39.87 38.02 40.08 38.02 40.28 38.02 40.49 38.02 40.7 38.02 40.91 38.02 41.12 38.02 41.32 38.02 41.53 38.02 41.74 38.02 41.95 38.02 42.16 34.9 42.36 34.9 42.57 34.9 42.78 34.9 42.99 34.9 43.2 34.9 43.4 34.9 43.61 34.9 43.82 34.9 44.03 34.9 44.24 34.9 44.44 34.9 44.65 34.9 44.86 34.9 45.07 34.9 45.28 33.37 45.48 33.37 45.69 33.37 45.9 33.37 46.11 33.37 46.32 33.37 46.53 33.37 46.73 33.37 46.94 33.37 47.15 33.37 47.36 33.37 47.57 33.37 47.77 33.37 47.98 33.37 48.19 33.37 48.4 33.37 48.61 33.37 48.81 33.37 49.02 33.37 49.23 33.37 49.44 33.37 49.65 33.37 49.85 33.37 50.06 33.37 50.27 33.37 50.48 33.37 50.69 35.61 50.89 35.61 51.1 35.61 51.31 35.61 51.52 35.61 51.73 35.61 51.93 35.61 52.14 35.61 52.35 35.61 52.56 35.61 52.77 35.61 52.97 35.61 53.18 35.61 53.39 35.61 53.6 39.27 53.81 39.27 54.01 39.27 54.22 39.27 54.43 39.27 54.64 39.27 54.85 39.27 55.05 39.27 55.26 39.27 55.47 39.27 55.68 39.27 55.89 39.27 56.09 39.27 56.3 39.27 56.51 39.27 56.72 39.27 56.93 39.27 57.13 39.27 57.34 39.27 57.55 41.64 57.76 41.64 57.97 41.64 58.17 41.64 58.38 41.64 58.59 41.64 58.8 41.64 59.01 41.64 59.21 41.64 59.42 41.64 59.63 41.64 59.84 43.41 60.05 43.41 60.25 43.41 60.46 43.41 60.67 43.41 60.88 43.41 61.09 43.41 61.29 43.41 61.5 43.41 61.71 43.41 61.92 43.41 62.13 43.41 62.34 43.41 62.54 43.41 62.75 43.41 62.96 43.41 63.17 43.41 63.38 43.41 63.58 43.41 63.79 43.41 64 43.41 64.21 43.41 64.42 43.41 64.62 43.41 64.83 43.41 65.04 43.41 65.25 43.41 65.46 43.41 65.66 43.41 65.87 43.41 66.08 43.41 66.29 43.41 66.5 43.41 66.7 43.41 66.91 43.41 67.12 43.41 67.33 43.41 67.54 43.41 67.74 43.41 67.95 43.41 68.16 43.41 68.37 43.41 68.58 43.41 68.78 43.41 68.99 43.41 69.2 43.41"/>
      </g>
    </g>
  </g>
</g>
  <g font-size="4.23" font-family="'PT Sans','Helvetica Neue','Helvetica',sans-serif" fill="#564A55" stroke="#000000" stroke-opacity="0.000" id="img-850cad1f-9">
    <text x="38.1" y="5" text-anchor="middle" dy="0.6em">Non-private histogram estimate</text>
  </g>
</g>
<defs>
  <clipPath id="img-850cad1f-2">
  <path d="M5,10.94 L 71.2 10.94 71.2 45.8 5 45.8" />
</clipPath>
</defs>
</svg>
