<?xml version="1.0" encoding="UTF-8"?>
<svg xmlns="http://www.w3.org/2000/svg"
     xmlns:xlink="http://www.w3.org/1999/xlink"
     xmlns:gadfly="http://www.gadflyjl.org/ns"
     version="1.2"
     width="76.2mm" height="50.8mm" viewBox="0 0 76.2 50.8"
     stroke="none"
     fill="#000000"
     stroke-width="0.3"
     font-size="3.88"
>
<g class="plotroot xscalable yscalable" id="img-591f70af-1">
<g clip-path="url(#img-591f70af-2)">
  <g id="img-591f70af-3">
    <g pointer-events="visible" opacity="1" fill="#000000" fill-opacity="0.000" stroke="#000000" stroke-opacity="0.000" class="guide background" id="img-591f70af-4">
      <rect x="5" y="10.94" width="66.2" height="34.86"/>
    </g>
    <g class="guide ygridlines xfixed" stroke-dasharray="0.5,0.5" stroke-width="0.2" stroke="#D0D0E0" id="img-591f70af-5">
      <path fill="none" d="M5,43.8 L 71.2 43.8"/>
      <path fill="none" d="M5,36.08 L 71.2 36.08"/>
      <path fill="none" d="M5,28.37 L 71.2 28.37"/>
      <path fill="none" d="M5,20.65 L 71.2 20.65"/>
      <path fill="none" d="M5,12.94 L 71.2 12.94"/>
    </g>
    <g class="guide xgridlines yfixed" stroke-dasharray="0.5,0.5" stroke-width="0.2" stroke="#D0D0E0" id="img-591f70af-6">
      <path fill="none" d="M7,10.94 L 7 45.8"/>
      <path fill="none" d="M22.55,10.94 L 22.55 45.8"/>
      <path fill="none" d="M38.1,10.94 L 38.1 45.8"/>
      <path fill="none" d="M53.65,10.94 L 53.65 45.8"/>
      <path fill="none" d="M69.2,10.94 L 69.2 45.8"/>
    </g>
    <g class="plotpanel" id="img-591f70af-7">
      <g stroke-width="0.71" fill="#000000" fill-opacity="0.000" class="geometry" stroke-dasharray="none" stroke="#00BFFF" id="img-591f70af-8">
        <path fill="none" d="M7,42.67 L 7.21 42.67 7.42 42.67 7.62 42.67 7.83 42.67 8.04 42.67 8.25 42.67 8.46 42.67 8.66 42.67 8.87 42.67 9.08 42.67 9.29 42.67 9.5 42.67 9.7 42.67 9.91 42.67 10.12 42.67 10.33 42.67 10.54 42.67 10.74 42.67 10.95 42.67 11.16 42.67 11.37 42.67 11.58 42.67 11.78 42.67 11.99 42.67 12.2 42.67 12.41 42.67 12.62 42.67 12.82 42.67 13.03 42.67 13.24 42.67 13.45 42.67 13.66 39.57 13.86 39.57 14.07 39.57 14.28 39.57 14.49 39.57 14.7 39.57 14.91 39.57 15.11 39.57 15.32 39.57 15.53 39.57 15.74 39.57 15.95 39.57 16.15 39.57 16.36 39.57 16.57 39.57 16.78 39.57 16.99 34.24 17.19 34.24 17.4 34.24 17.61 34.24 17.82 29.97 18.03 29.97 18.23 29.97 18.44 29.97 18.65 29.97 18.86 29.97 19.07 29.97 19.27 29.97 19.48 29.97 19.69 29.97 19.9 29.97 20.11 21.58 20.31 21.58 20.52 21.58 20.73 21.22 20.94 21.22 21.15 21.22 21.35 21.22 21.56 21.22 21.77 21.22 21.98 21.22 22.19 21.22 22.39 21.22 22.6 17.18 22.81 17.18 23.02 17.18 23.23 17.18 23.43 17.18 23.64 17.18 23.85 17.18 24.06 17.18 24.27 17.18 24.47 17.18 24.68 17.18 24.89 18.79 25.1 18.79 25.31 18.79 25.51 21.28 25.72 21.28 25.93 21.28 26.14 21.28 26.35 21.28 26.55 21.28 26.76 21.28 26.97 21.28 27.18 21.28 27.39 21.28 27.59 21.28 27.8 28.98 28.01 28.98 28.22 28.98 28.43 28.98 28.63 28.98 28.84 28.98 29.05 28.98 29.26 28.98 29.47 28.98 29.67 28.98 29.88 28.98 30.09 28.98 30.3 34.82 30.51 34.82 30.72 34.82 30.92 34.82 31.13 36.22 31.34 36.22 31.55 36.22 31.76 36.22 31.96 36.22 32.17 36.22 32.38 36.22 32.59 36.22 32.8 36.22 33 36.22 33.21 40.27 33.42 40.27 33.63 40.27 33.84 40.27 34.04 40.27 34.25 40.27 34.46 40.27 34.67 40.27 34.88 40.27 35.08 40.27 35.29 40.27 35.5 40.27 35.71 40.27 35.92 40.27 36.12 40.27 36.33 40.27 36.54 40.27 36.75 40.27 36.96 40.27 37.16 40.27 37.37 39.18 37.58 39.18 37.79 39.18 38 39.18 38.2 39.18 38.41 39.18 38.62 39.18 38.83 39.18 39.04 37.43 39.24 37.43 39.45 37.43 39.66 37.43 39.87 37.43 40.08 37.43 40.28 37.43 40.49 37.43 40.7 37.43 40.91 37.43 41.12 37.43 41.32 37.43 41.53 37.43 41.74 37.43 41.95 37.43 42.16 37.43 42.36 37.43 42.57 37.43 42.78 37.43 42.99 37.43 43.2 37.43 43.4 37.43 43.61 34.3 43.82 34.3 44.03 34.3 44.24 34.3 44.44 34.3 44.65 34.3 44.86 34.3 45.07 34.3 45.28 34.3 45.48 34.3 45.69 34.3 45.9 34.3 46.11 34.3 46.32 34.3 46.53 34.3 46.73 34.3 46.94 34.3 47.15 34.3 47.36 34.3 47.57 34.3 47.77 34.3 47.98 34.3 48.19 34.3 48.4 34.3 48.61 34.3 48.81 34.3 49.02 34.3 49.23 34.3 49.44 34.3 49.65 34.3 49.85 34.3 50.06 34.3 50.27 34.3 50.48 34.3 50.69 34.3 50.89 34.3 51.1 34.3 51.31 34.3 51.52 34.3 51.73 34.3 51.93 34.3 52.14 34.3 52.35 34.3 52.56 34.3 52.77 34.3 52.97 34.3 53.18 34.3 53.39 34.3 53.6 34.3 53.81 39.52 54.01 39.52 54.22 39.52 54.43 39.52 54.64 39.52 54.85 39.52 55.05 39.52 55.26 39.52 55.47 40.07 55.68 40.07 55.89 40.07 56.09 40.07 56.3 40.07 56.51 40.07 56.72 40.07 56.93 40.07 57.13 40.07 57.34 40.07 57.55 42.05 57.76 42.05 57.97 42.05 58.17 42.05 58.38 42.05 58.59 42.05 58.8 42.05 59.01 42.05 59.21 42.05 59.42 42.05 59.63 42.05 59.84 42.05 60.05 42.05 60.25 42.05 60.46 42.05 60.67 42.05 60.88 42.05 61.09 42.05 61.29 42.05 61.5 42.05 61.71 43.3 61.92 43.3 62.13 43.3 62.34 43.3 62.54 43.3 62.75 43.3 62.96 43.3 63.17 43.3 63.38 43.3 63.58 43.3 63.79 43.3 64 43.3 64.21 43.3 64.42 43.3 64.62 43.3 64.83 43.3 65.04 43.3 65.25 43.3 65.46 43.3 65.66 43.3 65.87 43.3 66.08 43.3 66.29 43.3 66.5 43.3 66.7 43.3 66.91 43.3 67.12 43.3 67.33 43.3 67.54 43.3 67.74 43.3 67.95 43.3 68.16 43.3 68.37 43.3 68.58 43.3 68.78 43.3 68.99 43.3 69.2 43.3"/>
      </g>
    </g>
  </g>
</g>
  <g font-size="4.23" font-family="'PT Sans','Helvetica Neue','Helvetica',sans-serif" fill="#564A55" stroke="#000000" stroke-opacity="0.000" id="img-591f70af-9">
    <text x="38.1" y="5" text-anchor="middle" dy="0.6em">Private density estimate</text>
  </g>
</g>
<defs>
  <clipPath id="img-591f70af-2">
  <path d="M5,10.94 L 71.2 10.94 71.2 45.8 5 45.8" />
</clipPath>
</defs>
</svg>
