<?xml version="1.0" encoding="UTF-8"?>
<svg xmlns="http://www.w3.org/2000/svg"
     xmlns:xlink="http://www.w3.org/1999/xlink"
     xmlns:gadfly="http://www.gadflyjl.org/ns"
     version="1.2"
     width="76.2mm" height="50.8mm" viewBox="0 0 76.2 50.8"
     stroke="none"
     fill="#000000"
     stroke-width="0.3"
     font-size="3.88"
>
<g class="plotroot xscalable yscalable" id="img-a374659e-1">
<g clip-path="url(#img-a374659e-2)">
  <g id="img-a374659e-3">
    <g pointer-events="visible" opacity="1" fill="#000000" fill-opacity="0.000" stroke="#000000" stroke-opacity="0.000" class="guide background" id="img-a374659e-4">
      <rect x="5" y="10.94" width="66.2" height="34.86"/>
    </g>
    <g class="guide ygridlines xfixed" stroke-dasharray="0.5,0.5" stroke-width="0.2" stroke="#D0D0E0" id="img-a374659e-5">
      <path fill="none" d="M5,43.8 L 71.2 43.8"/>
      <path fill="none" d="M5,36.08 L 71.2 36.08"/>
      <path fill="none" d="M5,28.37 L 71.2 28.37"/>
      <path fill="none" d="M5,20.65 L 71.2 20.65"/>
      <path fill="none" d="M5,12.94 L 71.2 12.94"/>
    </g>
    <g class="guide xgridlines yfixed" stroke-dasharray="0.5,0.5" stroke-width="0.2" stroke="#D0D0E0" id="img-a374659e-6">
      <path fill="none" d="M7,10.94 L 7 45.8"/>
      <path fill="none" d="M22.55,10.94 L 22.55 45.8"/>
      <path fill="none" d="M38.1,10.94 L 38.1 45.8"/>
      <path fill="none" d="M53.65,10.94 L 53.65 45.8"/>
      <path fill="none" d="M69.2,10.94 L 69.2 45.8"/>
    </g>
    <g class="plotpanel" id="img-a374659e-7">
      <g stroke-width="0.71" fill="#000000" fill-opacity="0.000" class="geometry" stroke-dasharray="none" stroke="#00BFFF" id="img-a374659e-8">
        <path fill="none" d="M7,42.82 L 7.21 42.82 7.42 42.82 7.62 42.82 7.83 42.82 8.04 42.82 8.25 42.82 8.46 42.82 8.66 42.82 8.87 42.82 9.08 42.82 9.29 42.82 9.5 42.82 9.7 42.82 9.91 42.82 10.12 42.82 10.33 42.82 10.54 42.82 10.74 42.82 10.95 42.82 11.16 42.82 11.37 42.82 11.58 42.82 11.78 42.82 11.99 42.82 12.2 42.82 12.41 42.82 12.62 42.82 12.82 42.82 13.03 42.82 13.24 42.82 13.45 42.82 13.66 42.82 13.86 42.82 14.07 42.82 14.28 42.82 14.49 42.82 14.7 42.82 14.91 37.49 15.11 37.49 15.32 37.49 15.53 37.49 15.74 37.49 15.95 37.49 16.15 37.49 16.36 37.49 16.57 37.49 16.78 37.49 16.99 37.49 17.19 37.49 17.4 30.73 17.61 30.73 17.82 30.73 18.03 30.22 18.23 30.22 18.44 30.22 18.65 30.22 18.86 30.22 19.07 30.22 19.27 30.22 19.48 30.22 19.69 27.45 19.9 27.45 20.11 19.85 20.31 19.85 20.52 19.85 20.73 19.85 20.94 19.85 21.15 19.85 21.35 19.85 21.56 19.85 21.77 19.85 21.98 19.85 22.19 19.85 22.39 19.85 22.6 19.85 22.81 19.85 23.02 19.85 23.23 19.85 23.43 19.85 23.64 19.85 23.85 19.85 24.06 19.85 24.27 19.85 24.47 19.85 24.68 19.85 24.89 19.85 25.1 19.85 25.31 19.85 25.51 19.85 25.72 19.85 25.93 19.85 26.14 19.85 26.35 19.85 26.55 19.85 26.76 19.85 26.97 19.85 27.18 19.85 27.39 19.85 27.59 22.42 27.8 22.42 28.01 29.16 28.22 29.16 28.43 29.16 28.63 29.16 28.84 29.16 29.05 29.16 29.26 29.16 29.47 29.16 29.67 29.16 29.88 29.16 30.09 31.87 30.3 31.87 30.51 31.87 30.72 36.06 30.92 36.06 31.13 36.06 31.34 36.06 31.55 36.06 31.76 36.06 31.96 36.06 32.17 36.06 32.38 36.06 32.59 36.06 32.8 39.37 33 39.37 33.21 39.37 33.42 39.37 33.63 39.37 33.84 39.37 34.04 39.37 34.25 39.37 34.46 40.2 34.67 40.2 34.88 40.2 35.08 40.2 35.29 40.2 35.5 40.2 35.71 40.2 35.92 40.2 36.12 40.2 36.33 40.2 36.54 39.81 36.75 39.81 36.96 39.81 37.16 39.81 37.37 39.81 37.58 39.81 37.79 39.81 38 39.81 38.2 39.81 38.41 39.81 38.62 37.42 38.83 37.42 39.04 37.42 39.24 37.42 39.45 37.42 39.66 37.42 39.87 37.42 40.08 37.42 40.28 37.42 40.49 37.42 40.7 37.42 40.91 37.42 41.12 37.42 41.32 37.42 41.53 37.42 41.74 37.42 41.95 37.42 42.16 37.42 42.36 37.42 42.57 37.42 42.78 37.42 42.99 37.42 43.2 37.42 43.4 33.79 43.61 33.79 43.82 33.79 44.03 33.79 44.24 33.79 44.44 33.79 44.65 33.79 44.86 33.79 45.07 33.56 45.28 33.56 45.48 33.56 45.69 33.56 45.9 33.56 46.11 33.56 46.32 33.56 46.53 33.56 46.73 33.56 46.94 33.56 47.15 33.56 47.36 33.56 47.57 33.56 47.77 33.56 47.98 33.56 48.19 33.56 48.4 33.56 48.61 33.56 48.81 35.06 49.02 35.06 49.23 35.06 49.44 35.06 49.65 35.06 49.85 35.06 50.06 35.06 50.27 35.06 50.48 35.06 50.69 35.06 50.89 35.06 51.1 35.06 51.31 35.06 51.52 35.06 51.73 35.06 51.93 35.06 52.14 35.06 52.35 35.06 52.56 35.06 52.77 35.06 52.97 35.06 53.18 36.36 53.39 36.36 53.6 36.36 53.81 36.36 54.01 36.36 54.22 40.1 54.43 40.1 54.64 40.1 54.85 40.1 55.05 40.1 55.26 40.1 55.47 40.1 55.68 40.1 55.89 40.1 56.09 40.1 56.3 40.1 56.51 40.1 56.72 40.1 56.93 40.1 57.13 40.1 57.34 40.1 57.55 40.1 57.76 40.1 57.97 40.1 58.17 40.1 58.38 43.1 58.59 43.1 58.8 43.1 59.01 43.1 59.21 43.1 59.42 43.1 59.63 43.1 59.84 43.1 60.05 43.1 60.25 43.1 60.46 43.1 60.67 43.1 60.88 43.1 61.09 43.1 61.29 43.1 61.5 43.1 61.71 43.1 61.92 43.1 62.13 43.1 62.34 43.1 62.54 43.1 62.75 43.1 62.96 43.1 63.17 43.1 63.38 43.1 63.58 43.1 63.79 43.1 64 43.1 64.21 43.1 64.42 43.1 64.62 43.1 64.83 43.1 65.04 43.1 65.25 43.1 65.46 43.1 65.66 43.1 65.87 43.1 66.08 43.1 66.29 43.1 66.5 43.1 66.7 43.1 66.91 43.1 67.12 43.1 67.33 43.1 67.54 43.1 67.74 43.1 67.95 43.1 68.16 43.1 68.37 43.1 68.58 43.1 68.78 43.1 68.99 43.1 69.2 43.1"/>
      </g>
    </g>
  </g>
</g>
  <g font-size="4.23" font-family="'PT Sans','Helvetica Neue','Helvetica',sans-serif" fill="#564A55" stroke="#000000" stroke-opacity="0.000" id="img-a374659e-9">
    <text x="38.1" y="5" text-anchor="middle" dy="0.6em">Private histogram estimate</text>
  </g>
</g>
<defs>
  <clipPath id="img-a374659e-2">
  <path d="M5,10.94 L 71.2 10.94 71.2 45.8 5 45.8" />
</clipPath>
</defs>
</svg>
