<?xml version="1.0" encoding="UTF-8"?>
<svg xmlns="http://www.w3.org/2000/svg"
     xmlns:xlink="http://www.w3.org/1999/xlink"
     xmlns:gadfly="http://www.gadflyjl.org/ns"
     version="1.2"
     width="76.2mm" height="50.8mm" viewBox="0 0 76.2 50.8"
     stroke="none"
     fill="#000000"
     stroke-width="0.3"
     font-size="3.88"
>
<g class="plotroot xscalable yscalable" id="img-e70e6814-1">
<g clip-path="url(#img-e70e6814-2)">
  <g id="img-e70e6814-3">
    <g pointer-events="visible" opacity="1" fill="#000000" fill-opacity="0.000" stroke="#000000" stroke-opacity="0.000" class="guide background" id="img-e70e6814-4">
      <rect x="5" y="10.28" width="66.2" height="35.52"/>
    </g>
    <g class="guide ygridlines xfixed" stroke-dasharray="0.5,0.5" stroke-width="0.2" stroke="#D0D0E0" id="img-e70e6814-5">
      <path fill="none" d="M5,43.8 L 71.2 43.8"/>
      <path fill="none" d="M5,35.92 L 71.2 35.92"/>
      <path fill="none" d="M5,28.04 L 71.2 28.04"/>
      <path fill="none" d="M5,20.16 L 71.2 20.16"/>
      <path fill="none" d="M5,12.28 L 71.2 12.28"/>
    </g>
    <g class="guide xgridlines yfixed" stroke-dasharray="0.5,0.5" stroke-width="0.2" stroke="#D0D0E0" id="img-e70e6814-6">
      <path fill="none" d="M7,10.28 L 7 45.8"/>
      <path fill="none" d="M22.55,10.28 L 22.55 45.8"/>
      <path fill="none" d="M38.1,10.28 L 38.1 45.8"/>
      <path fill="none" d="M53.65,10.28 L 53.65 45.8"/>
      <path fill="none" d="M69.2,10.28 L 69.2 45.8"/>
    </g>
    <g class="plotpanel" id="img-e70e6814-7">
      <g stroke-width="0.71" fill="#000000" fill-opacity="0.000" class="geometry" stroke-dasharray="none" stroke="#00BFFF" id="img-e70e6814-8">
        <path fill="none" d="M7,42.58 L 7.21 42.58 7.42 42.58 7.62 42.58 7.83 42.58 8.04 42.58 8.25 42.58 8.46 42.58 8.66 42.58 8.87 42.58 9.08 42.58 9.29 42.58 9.5 42.58 9.7 42.58 9.91 42.58 10.12 42.58 10.33 42.58 10.54 42.58 10.74 42.58 10.95 42.58 11.16 42.58 11.37 42.58 11.58 42.58 11.78 42.58 11.99 42.58 12.2 42.58 12.41 42.58 12.62 42.58 12.82 42.58 13.03 42.58 13.24 42.58 13.45 42.58 13.66 42.58 13.86 39.28 14.07 39.28 14.28 39.28 14.49 39.28 14.7 39.28 14.91 39.28 15.11 39.28 15.32 39.28 15.53 39.28 15.74 39.28 15.95 39.28 16.15 39.28 16.36 39.28 16.57 39.28 16.78 39.28 16.99 39.28 17.19 39.28 17.4 29.64 17.61 29.64 17.82 29.64 18.03 29.64 18.23 29.64 18.44 29.64 18.65 29.64 18.86 29.64 19.07 29.64 19.27 29.64 19.48 29.64 19.69 25.61 19.9 25.61 20.11 25.61 20.31 19.41 20.52 19.41 20.73 19.41 20.94 19.41 21.15 19.41 21.35 19.41 21.56 19.41 21.77 19.41 21.98 19.41 22.19 19.41 22.39 19.41 22.6 19.41 22.81 19.41 23.02 19.41 23.23 19.41 23.43 19.41 23.64 19.41 23.85 19.41 24.06 19.41 24.27 19.41 24.47 19.41 24.68 19.41 24.89 19.41 25.1 19.41 25.31 19.41 25.51 19.41 25.72 19.41 25.93 19.41 26.14 19.41 26.35 19.41 26.55 19.41 26.76 19.41 26.97 19.41 27.18 19.41 27.39 19.41 27.59 24.18 27.8 24.18 28.01 28.31 28.22 28.31 28.43 28.31 28.63 28.31 28.84 28.31 29.05 28.31 29.26 28.31 29.47 28.31 29.67 28.31 29.88 28.31 30.09 28.31 30.3 33.76 30.51 33.76 30.72 33.76 30.92 33.76 31.13 36.14 31.34 36.14 31.55 36.14 31.76 36.14 31.96 36.14 32.17 36.57 32.38 36.57 32.59 36.57 32.8 36.57 33 36.57 33.21 38.83 33.42 38.83 33.63 38.83 33.84 38.83 34.04 38.83 34.25 38.83 34.46 38.83 34.67 38.83 34.88 38.83 35.08 38.83 35.29 38.83 35.5 38.83 35.71 38.83 35.92 38.83 36.12 38.83 36.33 38.83 36.54 38.83 36.75 38.83 36.96 38.83 37.16 38.83 37.37 38.83 37.58 38.83 37.79 38.83 38 38.83 38.2 38.83 38.41 38.83 38.62 38.83 38.83 38.83 39.04 38.83 39.24 38.83 39.45 38.83 39.66 38.83 39.87 38.83 40.08 38.83 40.28 38.83 40.49 38.83 40.7 38.83 40.91 38.83 41.12 38.83 41.32 38.83 41.53 38.83 41.74 38.83 41.95 38.83 42.16 38.83 42.36 38.83 42.57 38.83 42.78 38.83 42.99 38.83 43.2 34.96 43.4 34.96 43.61 34.96 43.82 34.96 44.03 34.96 44.24 33.35 44.44 33.35 44.65 33.35 44.86 33.35 45.07 33.35 45.28 33.35 45.48 33.35 45.69 33.35 45.9 33.35 46.11 33.35 46.32 33.35 46.53 33.35 46.73 33.35 46.94 33.35 47.15 33.35 47.36 33.35 47.57 33.35 47.77 33.35 47.98 33.35 48.19 33.81 48.4 33.81 48.61 33.81 48.81 33.81 49.02 35.09 49.23 35.09 49.44 35.09 49.65 35.09 49.85 35.09 50.06 35.09 50.27 35.09 50.48 35.09 50.69 35.09 50.89 35.09 51.1 35.09 51.31 35.09 51.52 35.09 51.73 35.09 51.93 35.09 52.14 35.09 52.35 35.09 52.56 35.09 52.77 35.09 52.97 35.09 53.18 35.09 53.39 35.09 53.6 39.18 53.81 39.18 54.01 39.18 54.22 39.18 54.43 39.18 54.64 39.18 54.85 39.18 55.05 39.18 55.26 39.18 55.47 39.87 55.68 39.87 55.89 39.87 56.09 39.87 56.3 39.87 56.51 39.87 56.72 39.87 56.93 39.87 57.13 39.87 57.34 39.87 57.55 42.39 57.76 42.39 57.97 42.39 58.17 42.39 58.38 42.39 58.59 42.39 58.8 42.39 59.01 42.39 59.21 42.39 59.42 42.39 59.63 42.39 59.84 42.39 60.05 42.39 60.25 42.39 60.46 42.39 60.67 42.39 60.88 42.39 61.09 42.39 61.29 42.39 61.5 42.39 61.71 42.39 61.92 42.39 62.13 42.39 62.34 42.39 62.54 42.39 62.75 42.39 62.96 42.39 63.17 42.39 63.38 43.33 63.58 43.33 63.79 43.33 64 43.33 64.21 43.33 64.42 43.33 64.62 43.33 64.83 43.33 65.04 43.33 65.25 43.33 65.46 43.33 65.66 43.33 65.87 43.33 66.08 43.33 66.29 43.33 66.5 43.33 66.7 43.33 66.91 43.33 67.12 43.33 67.33 43.33 67.54 43.33 67.74 43.33 67.95 43.33 68.16 43.33 68.37 43.33 68.58 43.33 68.78 43.33 68.99 43.33 69.2 43.33"/>
      </g>
    </g>
  </g>
</g>
  <g font-size="3.53" font-family="'PT Sans','Helvetica Neue','Helvetica',sans-serif" fill="#564A55" stroke="#000000" stroke-opacity="0.000" id="img-e70e6814-9">
    <text x="38.1" y="5" text-anchor="middle" dy="0.6em">Private density estimate</text>
  </g>
</g>
<defs>
  <clipPath id="img-e70e6814-2">
  <path d="M5,10.28 L 71.2 10.28 71.2 45.8 5 45.8" />
</clipPath>
</defs>
</svg>
